<svg width="1200" height="1200" viewBox="0 0 1200 1200" fill="none" xmlns="http://www.w3.org/2000/svg">
<rect width="1200" height="1200" fill="white"/>
<path d="M422.492 634.337C422.492 640.957 420.322 646.289 415.982 650.335C411.642 654.38 405.133 656.403 396.453 656.403H380.896V689.282H373.173V612.16H396.453C405.059 612.16 411.532 614.182 415.872 618.228C420.285 622.274 422.492 627.643 422.492 634.337ZM396.453 649.783C408.516 649.783 414.548 644.634 414.548 634.337C414.548 629.188 413.113 625.289 410.245 622.641C407.376 619.993 402.779 618.669 396.453 618.669H380.896V649.783H396.453Z" fill="#070E20"/>
<path d="M426.086 660.171C426.086 654.221 427.254 649.015 429.592 644.553C432 640.019 435.294 636.549 439.473 634.14C443.722 631.661 448.504 630.422 453.816 630.422C459.341 630.422 464.086 631.697 468.053 634.247C472.09 636.797 474.994 640.055 476.765 644.021V631.272H484.202V689.282H476.765V676.427C474.924 680.393 471.984 683.687 467.947 686.308C463.98 688.858 459.234 690.132 453.71 690.132C448.468 690.132 443.722 688.893 439.473 686.414C435.294 683.935 432 680.429 429.592 675.895C427.254 671.362 426.086 666.121 426.086 660.171ZM476.765 660.277C476.765 655.602 475.809 651.494 473.897 647.953C471.984 644.411 469.363 641.684 466.034 639.772C462.776 637.859 459.164 636.903 455.197 636.903C451.089 636.903 447.406 637.824 444.147 639.665C440.889 641.507 438.304 644.198 436.391 647.74C434.55 651.211 433.629 655.354 433.629 660.171C433.629 664.917 434.55 669.096 436.391 672.708C438.304 676.25 440.889 678.977 444.147 680.889C447.406 682.731 451.089 683.651 455.197 683.651C459.164 683.651 462.776 682.695 466.034 680.783C469.363 678.87 471.984 676.143 473.897 672.602C475.809 669.06 476.765 664.952 476.765 660.277Z" fill="#070E20"/>
<path d="M503.481 641.578C505.11 637.965 507.589 635.168 510.918 633.184C514.318 631.201 518.461 630.209 523.349 630.209V637.965H521.33C515.947 637.965 511.626 639.417 508.368 642.321C505.11 645.226 503.481 650.077 503.481 656.877V689.282H496.043V631.272H503.481V641.578Z" fill="#070E20"/>
<path d="M545.093 637.54V673.558C545.093 677.1 545.766 679.543 547.112 680.889C548.458 682.235 550.831 682.908 554.231 682.908H561.03V689.282H553.062C547.82 689.282 543.925 688.078 541.375 685.67C538.825 683.191 537.55 679.154 537.55 673.558V637.54H529.475V631.272H537.55V616.716H545.093V631.272H561.03V637.54H545.093Z" fill="#070E20"/>
<path d="M598.37 630.209C605.312 630.209 610.978 632.37 615.37 636.69C619.761 640.94 621.957 647.138 621.957 655.284V689.282H614.626V656.134C614.626 649.83 613.032 645.013 609.845 641.684C606.728 638.355 602.443 636.69 596.989 636.69C591.393 636.69 586.931 638.461 583.602 642.003C580.273 645.544 578.608 650.75 578.608 657.621V689.282H571.171V631.272H578.608V641.153C580.45 637.611 583.106 634.92 586.577 633.078C590.048 631.166 593.979 630.209 598.37 630.209Z" fill="#070E20"/>
<path d="M688.766 657.302C688.766 659.852 688.695 661.8 688.554 663.146H640.424C640.637 667.537 641.699 671.291 643.611 674.408C645.524 677.525 648.038 679.897 651.155 681.526C654.272 683.085 657.671 683.864 661.355 683.864C666.171 683.864 670.209 682.695 673.467 680.358C676.796 678.02 678.992 674.868 680.054 670.902H687.916C686.5 676.568 683.454 681.208 678.779 684.82C674.175 688.362 668.367 690.132 661.355 690.132C655.901 690.132 651.013 688.928 646.693 686.52C642.372 684.041 638.972 680.57 636.493 676.108C634.085 671.575 632.881 666.298 632.881 660.277C632.881 654.257 634.085 648.98 636.493 644.446C638.901 639.913 642.266 636.442 646.586 634.034C650.907 631.626 655.83 630.422 661.355 630.422C666.879 630.422 671.696 631.626 675.804 634.034C679.983 636.442 683.171 639.701 685.366 643.809C687.633 647.846 688.766 652.344 688.766 657.302ZM681.223 657.09C681.294 652.769 680.408 649.086 678.567 646.04C676.796 642.994 674.352 640.692 671.236 639.134C668.119 637.576 664.719 636.797 661.036 636.797C655.511 636.797 650.801 638.567 646.905 642.109C643.009 645.651 640.849 650.644 640.424 657.09H681.223Z" fill="#070E20"/>
<path d="M707.686 641.578C709.315 637.965 711.794 635.168 715.123 633.184C718.523 631.201 722.666 630.209 727.554 630.209V637.965H725.535C720.152 637.965 715.831 639.417 712.573 642.321C709.315 645.226 707.686 650.077 707.686 656.877V689.282H700.248V631.272H707.686V641.578Z" fill="#070E20"/>
<path d="M756.591 690.132C749.933 690.132 744.479 688.61 740.229 685.564C736.05 682.447 733.713 678.233 733.217 672.921H740.867C741.221 676.179 742.744 678.835 745.436 680.889C748.198 682.872 751.881 683.864 756.485 683.864C760.523 683.864 763.675 682.908 765.941 680.995C768.279 679.083 769.447 676.71 769.447 673.877C769.447 671.893 768.81 670.264 767.535 668.989C766.26 667.714 764.631 666.723 762.648 666.014C760.735 665.235 758.114 664.421 754.785 663.571C750.465 662.438 746.958 661.304 744.267 660.171C741.575 659.038 739.273 657.373 737.361 655.177C735.519 652.911 734.598 649.9 734.598 646.146C734.598 643.313 735.448 640.692 737.148 638.284C738.848 635.876 741.257 633.963 744.373 632.547C747.49 631.13 751.031 630.422 754.998 630.422C761.231 630.422 766.26 632.016 770.085 635.203C773.91 638.32 775.964 642.64 776.247 648.165H768.81C768.597 644.765 767.252 642.038 764.772 639.984C762.364 637.859 759.035 636.797 754.785 636.797C751.031 636.797 747.986 637.682 745.648 639.453C743.311 641.224 742.142 643.419 742.142 646.04C742.142 648.307 742.815 650.184 744.161 651.671C745.577 653.088 747.313 654.221 749.367 655.071C751.421 655.85 754.183 656.736 757.654 657.727C761.833 658.861 765.162 659.958 767.641 661.021C770.12 662.083 772.245 663.642 774.016 665.696C775.787 667.75 776.707 670.477 776.778 673.877C776.778 676.993 775.928 679.791 774.228 682.27C772.528 684.678 770.156 686.591 767.11 688.008C764.064 689.424 760.558 690.132 756.591 690.132Z" fill="#070E20"/>
<g clip-path="url(#clip0_1003_595)">
<path d="M379.211 555.728C379.959 558.448 381.131 560.956 382.726 563.257C384.322 565.558 386.195 567.547 388.353 569.238C390.511 570.924 392.924 572.239 395.601 573.178C398.273 574.116 401.063 574.583 403.973 574.583C408.38 574.583 412.224 573.666 415.511 571.841C418.793 570.012 421.423 567.928 423.39 565.579H439.292C437.791 568.771 435.845 571.724 433.453 574.445C431.062 577.165 428.342 579.535 425.293 581.55C422.244 583.569 418.914 585.139 415.303 586.264C411.692 587.388 407.917 587.95 403.977 587.95C398.632 587.95 393.585 586.917 388.85 584.854C384.11 582.791 379.985 580.002 376.469 576.481C372.953 572.966 370.159 568.836 368.096 564.1C366.029 559.365 365 554.322 365 548.973C365 543.623 366.029 538.585 368.096 533.846C370.159 529.11 372.949 524.98 376.469 521.464C379.985 517.949 384.115 515.159 388.85 513.092C393.585 511.034 398.628 510 403.973 510C409.318 510 414.361 511.034 419.1 513.096C423.836 515.159 427.966 517.949 431.481 521.469C434.997 524.989 437.791 529.115 439.854 533.85C441.917 538.59 442.95 543.628 442.95 548.977C442.95 550.197 442.903 551.369 442.808 552.493C442.712 553.618 442.574 554.699 442.384 555.728H379.211ZM428.74 542.361C427.987 539.641 426.841 537.106 425.293 534.762C423.745 532.419 421.868 530.399 419.667 528.712C417.461 527.026 415.044 525.711 412.419 524.773C409.794 523.834 406.979 523.367 403.977 523.367C400.976 523.367 398.278 523.86 395.605 524.846C392.932 525.832 390.493 527.169 388.288 528.855C386.082 530.542 384.205 532.54 382.662 534.836C381.113 537.137 379.963 539.645 379.215 542.365H428.744L428.74 542.361Z" fill="#070E20"/>
<path d="M445.334 519.285L454.905 510L483.326 539.407L511.747 510L521.313 519.285L492.611 548.973L521.313 578.661L511.747 587.946L483.326 558.539L454.905 587.946L445.339 578.661L474.041 548.973L445.334 519.285Z" fill="#070E20"/>
<path d="M529.621 547.005C529.621 541.941 530.581 537.154 532.506 532.652C534.426 528.15 537.077 524.211 540.454 520.833C543.832 517.456 547.772 514.809 552.273 512.884C556.775 510.964 561.558 510 566.627 510C571.695 510 576.474 510.964 580.98 512.884C585.482 514.809 589.421 517.456 592.799 520.833C596.176 524.211 598.823 528.15 600.747 532.652C602.668 537.154 603.632 541.937 603.632 547.005V585.697H588.998V546.3C588.998 543.204 588.409 540.298 587.237 537.578C586.066 534.858 584.47 532.492 582.455 530.472C580.435 528.457 578.069 526.861 575.349 525.69C572.629 524.518 569.723 523.929 566.627 523.929C563.53 523.929 560.624 524.518 557.904 525.69C555.184 526.861 552.814 528.457 550.799 530.472C548.779 532.492 547.188 534.858 546.016 537.578C544.844 540.298 544.256 543.204 544.256 546.3V585.697H529.621V547.005Z" fill="#070E20"/>
<path d="M627.97 555.729C628.718 558.449 629.89 560.958 631.486 563.258C633.081 565.559 634.954 567.548 637.112 569.239C639.27 570.926 641.683 572.24 644.36 573.179C647.032 574.117 649.822 574.584 652.732 574.584C657.139 574.584 660.984 573.668 664.27 571.843C667.553 570.013 670.182 567.929 672.15 565.581H688.051C686.55 568.772 684.604 571.726 682.213 574.446C679.821 577.166 677.101 579.536 674.052 581.551C671.004 583.571 667.674 585.141 664.063 586.265C660.452 587.389 656.676 587.952 652.737 587.952C647.391 587.952 642.345 586.918 637.609 584.855C632.87 582.792 628.744 580.003 625.228 576.483C621.712 572.967 618.918 568.837 616.856 564.102C614.793 559.366 613.759 554.324 613.759 548.974C613.759 543.625 614.789 538.587 616.856 533.847C618.918 529.112 621.708 524.982 625.228 521.466C628.744 517.95 632.874 515.161 637.609 513.093C642.345 511.031 647.387 509.997 652.737 509.997C658.086 509.997 663.124 511.031 667.864 513.093C672.599 515.156 676.729 517.946 680.245 521.466C683.761 524.986 686.555 529.112 688.617 533.847C690.68 538.587 691.714 543.625 691.714 548.974C691.714 550.194 691.666 551.366 691.571 552.49C691.476 553.615 691.338 554.696 691.147 555.725H627.97V555.729ZM677.499 542.362C676.747 539.642 675.601 537.108 674.052 534.764C672.504 532.42 670.627 530.4 668.426 528.714C666.221 527.027 663.803 525.713 661.178 524.774C658.553 523.836 655.738 523.369 652.737 523.369C649.735 523.369 647.037 523.862 644.364 524.848C641.692 525.834 639.253 527.17 637.047 528.856C634.842 530.543 632.965 532.541 631.421 534.837C629.873 537.138 628.722 539.646 627.974 542.366H677.503L677.499 542.362Z" fill="#070E20"/>
<path d="M732.793 587.952C724.256 587.952 716.87 585.958 710.634 581.971C704.393 577.983 700.012 572.521 697.478 565.581H713.094C715.066 568.582 717.808 570.904 721.324 572.547C724.84 574.191 728.615 575.008 732.65 575.008C737.528 575.008 741.303 574.143 743.976 572.405C746.649 570.671 747.985 568.301 747.985 565.299C747.985 562.86 747.02 560.988 745.1 559.673C743.176 558.359 739.963 557.282 735.461 556.438L724.485 554.328C715.853 552.732 709.57 550.202 705.63 546.73C701.69 543.261 699.718 538.569 699.718 532.658C699.718 529.375 700.445 526.348 701.898 523.58C703.351 520.813 705.366 518.421 707.948 516.406C710.525 514.391 713.596 512.817 717.164 511.692C720.727 510.568 724.667 510.006 728.983 510.006C736.953 510.006 743.851 511.904 749.667 515.705C755.484 519.502 759.562 524.783 761.91 531.533H746.294C744.698 528.813 742.376 526.703 739.327 525.202C736.278 523.702 732.875 522.949 729.125 522.949C724.624 522.949 721.129 523.771 718.643 525.41C716.156 527.053 714.915 529.375 714.915 532.372C714.915 534.53 715.875 536.264 717.799 537.579C719.719 538.894 722.885 539.971 727.296 540.814L738.272 542.924C746.804 544.52 753.092 547.123 757.127 550.734C761.157 554.345 763.177 559.107 763.177 565.014C763.177 568.392 762.425 571.466 760.924 574.23C759.423 576.997 757.335 579.415 754.662 581.478C751.989 583.54 748.776 585.136 745.022 586.261C741.269 587.385 737.191 587.947 732.78 587.947L732.793 587.952Z" fill="#070E20"/>
<path d="M804.551 587.952C796.014 587.952 788.628 585.958 782.392 581.971C776.152 577.983 771.771 572.521 769.237 565.581H784.853C786.825 568.582 789.566 570.904 793.082 572.547C796.598 574.191 800.373 575.008 804.408 575.008C809.286 575.008 813.062 574.143 815.734 572.405C818.407 570.671 819.743 568.301 819.743 565.299C819.743 562.86 818.779 560.988 816.859 559.673C814.934 558.359 811.721 557.282 807.219 556.438L796.243 554.328C787.612 552.732 781.328 550.202 777.388 546.73C773.449 543.261 771.477 538.569 771.477 532.658C771.477 529.375 772.203 526.348 773.656 523.58C775.109 520.813 777.125 518.421 779.706 516.406C782.284 514.391 785.354 512.817 788.922 511.692C792.485 510.568 796.425 510.006 800.741 510.006C808.711 510.006 815.609 511.904 821.425 515.705C827.242 519.502 831.32 524.783 833.668 531.533H818.052C816.456 528.813 814.134 526.703 811.085 525.202C808.037 523.702 804.633 522.949 800.884 522.949C796.382 522.949 792.888 523.771 790.401 525.41C787.914 527.053 786.673 529.375 786.673 532.372C786.673 534.53 787.633 536.264 789.558 537.579C791.478 538.894 794.643 539.971 799.054 540.814L810.03 542.924C818.563 544.52 824.85 547.123 828.885 550.734C832.916 554.345 834.935 559.107 834.935 565.014C834.935 568.392 834.183 571.466 832.682 574.23C831.182 576.997 829.093 579.415 826.42 581.478C823.748 583.54 820.535 585.136 816.781 586.261C813.027 587.385 808.949 587.947 804.538 587.947L804.551 587.952Z" fill="#070E20"/>
</g>
<defs>
<clipPath id="clip0_1003_595">
<rect width="469.937" height="77.9502" fill="white" transform="translate(365 510)"/>
</clipPath>
</defs>
</svg>
